<svg version="1.1" id="Layer_1" xmlns="http://www.w3.org/2000/svg" xmlns:xlink="http://www.w3.org/1999/xlink" x="0px" y="0px"
	 width="100%" viewBox="0 0 454 455" enable-background="new 0 0 454 455" xml:space="preserve">
<path fill="#000000" opacity="1.000000" stroke="none" 
	d="
M239.000000,456.000000 
	C159.355087,456.000000 80.210182,456.000000 1.032637,456.000000 
	C1.032637,304.396790 1.032637,152.793549 1.032637,1.095162 
	C152.228256,1.095162 303.456573,1.095162 454.842468,1.095162 
	C454.842468,152.666534 454.842468,304.333252 454.842468,456.000000 
	C383.126862,456.000000 311.313416,456.000000 239.000000,456.000000 
M315.987335,311.007935 
	C343.319489,311.004791 370.651642,311.015747 397.983765,310.985291 
	C402.804535,310.979919 408.703064,312.459778 412.136902,310.227722 
	C415.444702,308.077576 416.224976,302.017517 418.082123,297.660980 
	C425.737732,279.702454 429.947876,260.815948 431.806213,241.519638 
	C432.844757,230.735443 432.600525,219.727127 431.835693,208.897400 
	C431.028320,197.465729 429.535126,185.999359 427.239258,174.773575 
	C422.722382,152.688263 413.883514,132.228088 402.020966,113.062813 
	C390.086517,93.781334 375.360901,76.882050 357.870453,62.535770 
	C342.426788,49.868382 325.389862,39.734467 306.924225,31.891153 
	C284.907501,22.539495 261.936676,17.336254 238.211090,16.223740 
	C225.558762,15.630462 212.768127,16.958492 200.095337,18.058018 
	C178.094727,19.966845 157.387436,26.852514 137.596008,36.294853 
	C122.721779,43.391247 109.084801,52.514153 96.260498,63.014416 
	C81.827606,74.831764 69.476639,88.380989 58.780807,103.552910 
	C45.703136,122.103432 35.580727,142.181015 30.093977,164.193802 
	C26.501947,178.604996 23.510925,193.354691 22.302502,208.120697 
	C20.970886,224.392014 21.917818,240.794037 24.844229,257.077301 
	C28.567820,277.796265 35.031471,297.516388 44.690914,316.095978 
	C57.391205,340.524506 74.630272,361.378723 95.637871,379.273560 
	C115.594246,396.273010 138.149704,408.673737 162.840500,416.661560 
	C188.338928,424.910736 214.664093,429.258972 241.664825,425.962463 
	C253.211548,424.552734 264.951996,423.634521 276.146301,420.728455 
	C288.388977,417.550201 300.102173,412.332184 312.688843,408.181183 
	C322.929779,418.422729 333.075592,428.763000 343.503601,438.810333 
	C345.275879,440.517914 348.253143,441.849915 350.683624,441.866211 
	C381.153870,442.070312 411.625885,442.000000 442.097473,442.000000 
	C443.519257,442.000000 444.941040,442.000000 447.362183,442.000000 
	C445.892090,440.460266 445.155090,439.642731 444.370697,438.873566 
	C427.771973,422.597504 411.120087,406.375397 394.580383,390.039642 
	C381.786011,377.403015 369.127655,364.628601 356.415619,351.908691 
	C352.297729,347.788269 348.237152,343.610016 344.087738,339.521729 
	C334.431335,330.007538 324.736816,320.532013 315.987335,311.007935 
z"/>
<path fill="#255BB7" opacity="1.000000" stroke="none" 
	d="
M312.046112,408.003143 
	C300.102173,412.332184 288.388977,417.550201 276.146301,420.728455 
	C264.951996,423.634521 253.211548,424.552734 241.664825,425.962463 
	C214.664093,429.258972 188.338928,424.910736 162.840500,416.661560 
	C138.149704,408.673737 115.594246,396.273010 95.637871,379.273560 
	C74.630272,361.378723 57.391205,340.524506 44.690914,316.095978 
	C35.031471,297.516388 28.567820,277.796265 24.844229,257.077301 
	C21.917818,240.794037 20.970886,224.392014 22.302502,208.120697 
	C23.510925,193.354691 26.501947,178.604996 30.093977,164.193802 
	C35.580727,142.181015 45.703136,122.103432 58.780807,103.552910 
	C69.476639,88.380989 81.827606,74.831764 96.260498,63.014416 
	C109.084801,52.514153 122.721779,43.391247 137.596008,36.294853 
	C157.387436,26.852514 178.094727,19.966845 200.095337,18.058018 
	C212.768127,16.958492 225.558762,15.630462 238.211090,16.223740 
	C261.936676,17.336254 284.907501,22.539495 306.924225,31.891153 
	C325.389862,39.734467 342.426788,49.868382 357.870453,62.535770 
	C375.360901,76.882050 390.086517,93.781334 402.020966,113.062813 
	C413.883514,132.228088 422.722382,152.688263 427.239258,174.773575 
	C429.535126,185.999359 431.028320,197.465729 431.835693,208.897400 
	C432.600525,219.727127 432.844757,230.735443 431.806213,241.519638 
	C429.947876,260.815948 425.737732,279.702454 418.082123,297.660980 
	C416.224976,302.017517 415.444702,308.077576 412.136902,310.227722 
	C408.703064,312.459778 402.804535,310.979919 397.983765,310.985291 
	C370.651642,311.015747 343.319489,311.004791 315.209290,310.909332 
	C313.595459,310.509583 312.759705,310.208435 312.083374,309.617249 
	C315.927948,305.290253 319.814636,301.417694 323.264160,297.188629 
	C340.382294,276.201935 348.567139,251.778915 349.842438,225.029175 
	C350.207947,217.363495 348.884338,209.582733 347.969910,201.898209 
	C346.379974,188.537064 341.744751,176.033508 335.516449,164.269089 
	C326.674072,147.567169 314.294830,133.753815 299.041656,122.505119 
	C279.585815,108.157120 257.623138,100.726006 233.713165,99.091606 
	C220.145432,98.164169 206.775131,99.961403 193.658829,103.872971 
	C160.457855,113.774292 135.497910,133.868515 119.009804,164.242249 
	C108.844627,182.968155 104.321594,203.076385 104.865242,224.526474 
	C105.306694,241.944199 109.082428,258.348694 116.505371,273.997437 
	C125.295990,292.529449 137.960342,307.835876 154.491486,320.043243 
	C174.770721,335.018463 197.401108,343.201630 222.584427,343.914764 
	C230.000931,344.124786 237.446442,343.310608 245.222229,343.048828 
	C247.021271,344.181885 248.639343,345.065674 249.907837,346.306763 
	C269.015930,365.001984 288.087402,383.734741 307.135223,402.491394 
	C308.884827,404.214264 310.414368,406.160583 312.046112,408.003143 
z"/>
<path fill="#3F91E1" opacity="1.000000" stroke="none" 
	d="
M312.367493,408.092163 
	C310.414368,406.160583 308.884827,404.214264 307.135223,402.491394 
	C288.087402,383.734741 269.015930,365.001984 249.907837,346.306763 
	C248.639343,345.065674 247.021271,344.181885 245.163971,342.722290 
	C234.200989,331.867706 223.639832,321.422668 213.078690,310.977600 
	C213.293793,310.620850 213.508881,310.264069 213.723984,309.907288 
	C246.457306,309.907288 279.190613,309.907288 311.923950,309.907288 
	C312.759705,310.208435 313.595459,310.509583 314.744476,310.925781 
	C324.736816,320.532013 334.431335,330.007538 344.087738,339.521729 
	C348.237152,343.610016 352.297729,347.788269 356.415619,351.908691 
	C369.127655,364.628601 381.786011,377.403015 394.580383,390.039642 
	C411.120087,406.375397 427.771973,422.597504 444.370697,438.873566 
	C445.155090,439.642731 445.892090,440.460266 447.362183,442.000000 
	C444.941040,442.000000 443.519257,442.000000 442.097473,442.000000 
	C411.625885,442.000000 381.153870,442.070312 350.683624,441.866211 
	C348.253143,441.849915 345.275879,440.517914 343.503601,438.810333 
	C333.075592,428.763000 322.929779,418.422729 312.367493,408.092163 
z"/>
<path fill="#000000" opacity="1.000000" stroke="none" 
	d="
M312.083374,309.617249 
	C279.190613,309.907288 246.457306,309.907288 213.723984,309.907288 
	C213.508881,310.264069 213.293793,310.620850 213.078690,310.977600 
	C223.639832,321.422668 234.200989,331.867706 244.820404,342.639282 
	C237.446442,343.310608 230.000931,344.124786 222.584427,343.914764 
	C197.401108,343.201630 174.770721,335.018463 154.491486,320.043243 
	C137.960342,307.835876 125.295990,292.529449 116.505371,273.997437 
	C109.082428,258.348694 105.306694,241.944199 104.865242,224.526474 
	C104.321594,203.076385 108.844627,182.968155 119.009804,164.242249 
	C135.497910,133.868515 160.457855,113.774292 193.658829,103.872971 
	C206.775131,99.961403 220.145432,98.164169 233.713165,99.091606 
	C257.623138,100.726006 279.585815,108.157120 299.041656,122.505119 
	C314.294830,133.753815 326.674072,147.567169 335.516449,164.269089 
	C341.744751,176.033508 346.379974,188.537064 347.969910,201.898209 
	C348.884338,209.582733 350.207947,217.363495 349.842438,225.029175 
	C348.567139,251.778915 340.382294,276.201935 323.264160,297.188629 
	C319.814636,301.417694 315.927948,305.290253 312.083374,309.617249 
z"/>
</svg>
